<svg width="34" height="34" viewBox="0 0 34 34" fill="none" xmlns="http://www.w3.org/2000/svg">
<path fill-rule="evenodd" clip-rule="evenodd" d="M34 17C34 26.3888 26.3888 34 17 34C7.61116 34 0 26.3888 0 17C0 7.61116 7.61116 0 17 0C26.3888 0 34 7.61116 34 17ZM17.0805 19.4162C20.2138 14.9852 20.3521 12.2998 17.0805 7.55556C13.7465 12.401 14.1762 14.9694 17.0805 19.4162ZM15.5914 25.1878C16.0895 19.7838 14.8665 17.389 9.66113 14.9162C9.19652 20.7795 10.8529 22.7889 15.5914 25.1878ZM18.5883 25.1878C18.0903 19.7839 19.3132 17.3891 24.5186 14.9162C24.9832 20.7795 23.3269 22.7889 18.5883 25.1878Z" fill="black"/>
</svg>
